<?xml version="1.0" encoding="UTF-8" standalone="no"?>
<svg
   xmlns:dc="http://purl.org/dc/elements/1.1/"
   xmlns:cc="http://creativecommons.org/ns#"
   xmlns:rdf="http://www.w3.org/1999/02/22-rdf-syntax-ns#"
   xmlns:svg="http://www.w3.org/2000/svg"
   xmlns="http://www.w3.org/2000/svg"
   viewBox="0 0 276.25467 40"
   height="40"
   width="276.25467"
   xml:space="preserve"
   version="1.1"
   id="svg2"><metadata
     id="metadata8"><rdf:RDF><cc:Work
         rdf:about=""><dc:format>image/svg+xml</dc:format><dc:type
           rdf:resource="http://purl.org/dc/dcmitype/StillImage" /></cc:Work></rdf:RDF></metadata><defs
     id="defs6"><clipPath
       id="clipPath16"
       clipPathUnits="userSpaceOnUse"><path
         id="path18"
         d="m 0,30 207.191,0 0,-30 L 0,0 0,30 Z" /></clipPath><clipPath
       id="clipPath32"
       clipPathUnits="userSpaceOnUse"><path
         id="path34"
         d="m 0,30 207.191,0 0,-30 L 0,0 0,30 Z" /></clipPath></defs><g
     transform="matrix(1.3333333,0,0,-1.3333333,0,40)"
     id="g10"><g
       id="g12"><g
         clip-path="url(#clipPath16)"
         id="g14"><g
           transform="translate(204.1094,16.2891)"
           id="g20"><path
             id="path22"
             style="fill:#000000;fill-opacity:1;fill-rule:nonzero;stroke:none"
             d="M 0,0 C 0.384,0 0.708,0.132 0.708,0.552 0.708,0.757 0.6,0.925 0.444,0.983 0.324,1.044 0.192,1.056 -0.012,1.056 l -0.228,0 L -0.24,0 0,0 Z m -0.696,1.415 0.792,0 c 0.252,0 0.432,-0.023 0.564,-0.07 0.36,-0.133 0.539,-0.433 0.539,-0.769 0,-0.444 -0.276,-0.72 -0.743,-0.815 l 0,-0.025 C 0.684,-0.42 0.959,-0.923 1.391,-1.679 l -0.528,0 c -0.431,0.781 -0.695,1.237 -0.875,1.321 l -0.228,0 0,-1.321 -0.456,0 0,3.094 z M 2.59,-0.19 c 0,1.389 -0.971,2.457 -2.362,2.457 -1.403,0 -2.375,-1.068 -2.375,-2.457 0,-1.381 0.972,-2.459 2.375,-2.459 1.391,0 2.362,1.078 2.362,2.459 m -5.216,0 c 0,1.641 1.187,2.901 2.854,2.901 1.643,0 2.854,-1.26 2.854,-2.901 0,-1.633 -1.211,-2.904 -2.854,-2.904 -1.667,0 -2.854,1.271 -2.854,2.904" /></g></g></g><text
       id="text24"
       style="font-variant:normal;font-weight:normal;font-stretch:normal;font-size:16px;font-family:'Open Sans';-inkscape-font-specification:OpenSans;writing-mode:lr-tb;fill:#000000;fill-opacity:1;fill-rule:nonzero;stroke:none"
       transform="matrix(1,0,0,-1,35.75,6.875)"><tspan
         id="tspan26"
         y="0"
         x="0 8.6239996 17.360001 32.080002 41.728001 45.616001 54.431999 58.431999 67.903999 74.272003 83.776001 93.424004 103.088 110.544 116.032 120.032 130.24001 136.608 145.34399 155.008">Sample Product Brand</tspan></text>
<g
       id="g28"><g
         clip-path="url(#clipPath32)"
         id="g30"><g
           transform="translate(30,4.9658)"
           id="g36"><path
             id="path38"
             style="fill:#43a8bf;fill-opacity:1;fill-rule:nonzero;stroke:none"
             d="m 0,0 c 0,-2.731 -2.235,-4.966 -4.966,-4.966 l -20.069,0 C -27.765,-4.966 -30,-2.731 -30,0 l 0,20.069 c 0,2.731 2.235,4.965 4.965,4.965 l 20.069,0 C -2.235,25.034 0,22.8 0,20.069 L 0,0 Z" /></g><g
           transform="translate(14.459,10.6543)"
           id="g40"><path
             id="path42"
             style="fill:#ffffff;fill-opacity:1;fill-rule:nonzero;stroke:none"
             d="m 0,0 c 0,-1.676 -0.603,-2.996 -1.809,-3.961 -1.206,-0.965 -2.884,-1.447 -5.034,-1.447 -1.98,0 -3.732,0.372 -5.256,1.117 l 0,3.656 c 1.253,-0.558 2.313,-0.952 3.181,-1.18 0.867,-0.229 1.661,-0.343 2.38,-0.343 0.863,0 1.525,0.165 1.987,0.495 0.461,0.33 0.692,0.821 0.692,1.473 0,0.364 -0.102,0.687 -0.305,0.971 -0.203,0.283 -0.502,0.556 -0.895,0.819 -0.394,0.262 -1.195,0.681 -2.406,1.256 -1.134,0.534 -1.985,1.045 -2.552,1.537 -0.566,0.491 -1.02,1.062 -1.358,1.713 -0.338,0.652 -0.508,1.414 -0.508,2.286 0,1.641 0.557,2.932 1.67,3.872 1.112,0.939 2.651,1.409 4.614,1.409 0.965,0 1.886,-0.114 2.762,-0.343 0.876,-0.228 1.792,-0.55 2.748,-0.965 L -1.358,9.306 c -0.991,0.406 -1.809,0.689 -2.457,0.85 -0.647,0.161 -1.284,0.241 -1.911,0.241 -0.744,0 -1.316,-0.173 -1.713,-0.52 -0.398,-0.347 -0.597,-0.8 -0.597,-1.358 0,-0.347 0.08,-0.65 0.241,-0.908 0.161,-0.258 0.417,-0.507 0.768,-0.75 0.351,-0.24 1.183,-0.674 2.495,-1.3 1.735,-0.83 2.924,-1.662 3.567,-2.495 C -0.322,2.232 0,1.21 0,0" /></g><g
           transform="translate(20.3115,13.0586)"
           id="g44"><path
             id="path46"
             style="fill:#ffffff;fill-opacity:1;fill-rule:nonzero;stroke:none"
             d="M 0,0 0.996,0 C 1.927,0 2.624,0.184 3.086,0.552 3.548,0.92 3.779,1.455 3.779,2.158 3.779,2.868 3.585,3.392 3.198,3.73 2.811,4.069 2.204,4.238 1.377,4.238 L 0,4.238 0,0 Z M 6.836,2.266 C 6.836,0.729 6.356,-0.446 5.396,-1.26 4.435,-2.073 3.07,-2.48 1.299,-2.48 l -1.299,0 0,-5.079 -3.027,0 0,14.278 4.56,0 c 1.732,0 3.049,-0.373 3.95,-1.118 C 6.385,4.855 6.836,3.743 6.836,2.266" /></g></g></g></g></svg>