<?xml version="1.0" encoding="UTF-8" standalone="no"?>
<svg
   xmlns:dc="http://purl.org/dc/elements/1.1/"
   xmlns:cc="http://creativecommons.org/ns#"
   xmlns:rdf="http://www.w3.org/1999/02/22-rdf-syntax-ns#"
   xmlns:svg="http://www.w3.org/2000/svg"
   xmlns="http://www.w3.org/2000/svg"
   viewBox="0 0 276.25467 40"
   height="40"
   width="276.25467"
   xml:space="preserve"
   version="1.1"
   id="svg2"><metadata
     id="metadata8"><rdf:RDF><cc:Work
         rdf:about=""><dc:format>image/svg+xml</dc:format><dc:type
           rdf:resource="http://purl.org/dc/dcmitype/StillImage" /></cc:Work></rdf:RDF></metadata><defs
     id="defs6"><clipPath
       id="clipPath16"
       clipPathUnits="userSpaceOnUse"><path
         id="path18"
         d="m 0,30 207.191,0 0,-30 L 0,0 0,30 Z" /></clipPath><clipPath
       id="clipPath32"
       clipPathUnits="userSpaceOnUse"><path
         id="path34"
         d="m 0,30 207.191,0 0,-30 L 0,0 0,30 Z" /></clipPath></defs><g
     transform="matrix(1.3333333,0,0,-1.3333333,0,40)"
     id="g10"><g
       id="g12"><g
         clip-path="url(#clipPath16)"
         id="g14"><g
           transform="translate(204.1094,16.2891)"
           id="g20"><path
             id="path22"
             style="fill:#ffffff;fill-opacity:1;fill-rule:nonzero;stroke:none"
             d="M 0,0 C 0.384,0 0.708,0.132 0.708,0.552 0.708,0.757 0.6,0.925 0.444,0.983 0.324,1.044 0.192,1.056 -0.012,1.056 l -0.228,0 L -0.24,0 0,0 Z m -0.696,1.415 0.792,0 c 0.252,0 0.432,-0.023 0.564,-0.07 0.36,-0.133 0.539,-0.433 0.539,-0.769 0,-0.444 -0.276,-0.72 -0.743,-0.815 l 0,-0.025 C 0.684,-0.42 0.959,-0.923 1.391,-1.679 l -0.528,0 c -0.431,0.781 -0.695,1.237 -0.875,1.321 l -0.228,0 0,-1.321 -0.456,0 0,3.094 z M 2.59,-0.19 c 0,1.389 -0.971,2.457 -2.362,2.457 -1.403,0 -2.375,-1.068 -2.375,-2.457 0,-1.381 0.972,-2.459 2.375,-2.459 1.391,0 2.362,1.078 2.362,2.459 m -5.216,0 c 0,1.641 1.187,2.901 2.854,2.901 1.643,0 2.854,-1.26 2.854,-2.901 0,-1.633 -1.211,-2.904 -2.854,-2.904 -1.667,0 -2.854,1.271 -2.854,2.904" /></g></g></g><text
       id="text24"
       style="font-variant:normal;font-weight:normal;font-stretch:normal;font-size:16px;font-family:'Open Sans';-inkscape-font-specification:OpenSans;writing-mode:lr-tb;fill:#ffffff;fill-opacity:1;fill-rule:nonzero;stroke:none"
       transform="matrix(1,0,0,-1,35.75,6.875)"><tspan
         id="tspan26"
         y="0"
         x="0 8.6239996 17.360001 32.080002 41.728001 45.616001 54.431999 58.431999 67.903999 74.272003 83.776001 93.424004 103.088 110.544 116.032 120.032 130.24001 136.608 145.34399 155.008">Sample Product Brand</tspan></text>
<g
       id="g28"><g
         clip-path="url(#clipPath32)"
         id="g30"><g
           transform="translate(30,4.9658)"
           id="g36"><path
             id="path38"
             style="fill:#43a8bf;fill-opacity:1;fill-rule:nonzero;stroke:none"
             d="m 0,0 c 0,-2.731 -2.235,-4.966 -4.966,-4.966 l -20.069,0 C -27.765,-4.966 -30,-2.731 -30,0 l 0,20.069 c 0,2.731 2.235,4.965 4.965,4.965 l 20.069,0 C -2.235,25.034 0,22.8 0,20.069 L 0,0 Z" /></g><text
           id="text40"
           style="font-variant:normal;font-weight:bold;font-stretch:normal;font-size:26px;font-family:'Open Sans';-inkscape-font-specification:OpenSans-Bold;writing-mode:lr-tb;fill:#ffffff;fill-opacity:1;fill-rule:nonzero;stroke:none"
           transform="matrix(1,0,0,-1,1.167,5.5)"><tspan
             id="tspan42"
             y="0"
             x="0">S</tspan></text>
<text
           id="text44"
           style="font-variant:normal;font-weight:bold;font-stretch:normal;font-size:20px;font-family:'Open Sans';-inkscape-font-specification:OpenSans-Bold;writing-mode:lr-tb;fill:#ffffff;fill-opacity:1;fill-rule:nonzero;stroke:none"
           transform="matrix(1,0,0,-1,15.4873,5.5)"><tspan
             id="tspan46"
             y="0"
             x="0">P</tspan></text>
</g></g></g></svg>