<?xml version="1.0" encoding="utf-8"?>
<!-- Generator: Adobe Illustrator 16.0.0, SVG Export Plug-In . SVG Version: 6.00 Build 0)  -->
<!DOCTYPE svg PUBLIC "-//W3C//DTD SVG 1.1//EN" "http://www.w3.org/Graphics/SVG/1.1/DTD/svg11.dtd">
<svg version="1.1" xmlns="http://www.w3.org/2000/svg" xmlns:xlink="http://www.w3.org/1999/xlink" x="0px" y="0px"
	 width="67.501px" height="30px" viewBox="0 0 67.501 30" enable-background="new 0 0 67.501 30" xml:space="preserve">
<g id="ARM">
</g>
<g id="FR">
	<g id="R">
	</g>
	<g id="type">
	</g>
	<g id="bg">
	</g>
	<path fill="#FFFFFF" d="M60.324,23.662c0-1.038,0.75-1.835,1.805-1.835c1.041,0,1.807,0.797,1.807,1.835
		c0,1.033-0.766,1.838-1.807,1.838C61.074,25.5,60.324,24.695,60.324,23.662 M63.623,23.662c0-0.878-0.613-1.554-1.494-1.554
		c-0.887,0-1.502,0.676-1.502,1.554c0,0.874,0.615,1.557,1.502,1.557C63.01,25.219,63.623,24.536,63.623,23.662 M61.545,22.647h0.5
		c0.16,0,0.273,0.015,0.357,0.044c0.229,0.084,0.342,0.274,0.342,0.486c0,0.281-0.176,0.455-0.471,0.516v0.016
		c0.145,0.1,0.318,0.417,0.592,0.896h-0.334c-0.273-0.493-0.439-0.782-0.555-0.835h-0.143v0.835h-0.289V22.647z M62.434,23.193
		c0-0.13-0.068-0.236-0.168-0.272c-0.076-0.039-0.158-0.047-0.289-0.047h-0.143v0.668C61.834,23.542,62.434,23.459,62.434,23.193z"
		/>
	<g>
		<path fill="#FFFFFF" d="M40.797,7.574c0,0.508-0.184,0.906-0.551,1.195s-0.874,0.434-1.52,0.434s-1.174-0.101-1.586-0.301V8.02
			c0.26,0.122,0.537,0.219,0.83,0.289s0.566,0.105,0.818,0.105c0.37,0,0.643-0.07,0.818-0.211s0.264-0.329,0.264-0.566
			c0-0.214-0.081-0.395-0.242-0.543s-0.495-0.324-1-0.527c-0.521-0.211-0.888-0.452-1.102-0.723s-0.32-0.597-0.32-0.977
			c0-0.477,0.169-0.852,0.508-1.125s0.793-0.41,1.363-0.41c0.547,0,1.091,0.12,1.633,0.359l-0.297,0.762
			c-0.508-0.214-0.961-0.32-1.359-0.32c-0.302,0-0.531,0.065-0.688,0.197s-0.234,0.306-0.234,0.521c0,0.148,0.031,0.275,0.094,0.381
			s0.166,0.205,0.309,0.299s0.401,0.218,0.773,0.371c0.419,0.175,0.727,0.337,0.922,0.488s0.338,0.321,0.43,0.512
			S40.797,7.316,40.797,7.574z"/>
		<path fill="#FFFFFF" d="M44.428,9.125l-0.184-0.602h-0.031c-0.208,0.263-0.418,0.442-0.629,0.537s-0.482,0.143-0.812,0.143
			c-0.424,0-0.756-0.114-0.994-0.344S41.42,8.306,41.42,7.887c0-0.445,0.166-0.781,0.496-1.008s0.834-0.351,1.512-0.371l0.746-0.023
			v-0.23c0-0.276-0.064-0.482-0.193-0.619s-0.329-0.205-0.6-0.205c-0.221,0-0.434,0.032-0.637,0.098s-0.398,0.142-0.586,0.23
			l-0.297-0.656c0.234-0.122,0.491-0.216,0.77-0.279s0.542-0.096,0.789-0.096c0.549,0,0.964,0.12,1.244,0.359s0.42,0.616,0.42,1.129
			v2.91H44.428z M43.061,8.5c0.333,0,0.601-0.093,0.803-0.279s0.303-0.447,0.303-0.783V7.062l-0.555,0.023
			c-0.432,0.016-0.747,0.088-0.943,0.217s-0.295,0.326-0.295,0.592c0,0.192,0.057,0.342,0.172,0.447S42.832,8.5,43.061,8.5z"/>
		<path fill="#FFFFFF" d="M49.926,9.125h-0.922V6.461c0-0.331-0.062-0.577-0.188-0.74s-0.32-0.244-0.586-0.244
			c-0.354,0-0.614,0.115-0.779,0.346s-0.248,0.614-0.248,1.15v2.152h-0.918v-4.32h0.719l0.129,0.566h0.047
			c0.12-0.206,0.293-0.364,0.521-0.477s0.479-0.168,0.752-0.168c0.664,0,1.104,0.227,1.32,0.68h0.062
			c0.127-0.214,0.307-0.38,0.539-0.5s0.498-0.18,0.797-0.18c0.516,0,0.891,0.13,1.127,0.391s0.354,0.657,0.354,1.191v2.816h-0.918
			V6.461c0-0.331-0.063-0.577-0.189-0.74s-0.322-0.244-0.588-0.244c-0.357,0-0.618,0.111-0.783,0.334s-0.248,0.564-0.248,1.025
			V9.125z"/>
		<path fill="#FFFFFF" d="M56.045,9.203c-0.547,0-0.971-0.196-1.273-0.59h-0.055c0.037,0.364,0.055,0.586,0.055,0.664v1.77h-0.918
			V4.805h0.742c0.021,0.081,0.064,0.273,0.129,0.578h0.047c0.287-0.438,0.716-0.656,1.289-0.656c0.539,0,0.959,0.195,1.26,0.586
			s0.451,0.938,0.451,1.645s-0.153,1.257-0.459,1.652S56.584,9.203,56.045,9.203z M55.822,5.477c-0.365,0-0.631,0.106-0.799,0.32
			s-0.252,0.555-0.252,1.023v0.137c0,0.526,0.083,0.907,0.25,1.143s0.439,0.354,0.816,0.354c0.318,0,0.562-0.13,0.734-0.391
			s0.258-0.632,0.258-1.113c0-0.484-0.085-0.851-0.256-1.1S56.153,5.477,55.822,5.477z"/>
		<path fill="#FFFFFF" d="M59.676,9.125h-0.918V3.047h0.918V9.125z"/>
		<path fill="#FFFFFF" d="M62.795,9.203c-0.672,0-1.197-0.196-1.576-0.588s-0.568-0.932-0.568-1.619
			c0-0.706,0.176-1.261,0.527-1.664s0.834-0.605,1.449-0.605c0.57,0,1.021,0.173,1.352,0.52s0.496,0.823,0.496,1.43v0.496h-2.879
			c0.013,0.419,0.126,0.741,0.34,0.967s0.514,0.338,0.902,0.338c0.255,0,0.493-0.024,0.713-0.072s0.457-0.128,0.709-0.24V8.91
			c-0.224,0.106-0.451,0.183-0.68,0.227S63.09,9.203,62.795,9.203z M62.627,5.422c-0.292,0-0.525,0.093-0.701,0.277
			s-0.281,0.454-0.314,0.809h1.961c-0.005-0.356-0.091-0.627-0.258-0.811S62.919,5.422,62.627,5.422z"/>
		<path fill="#FFFFFF" d="M41.285,14.74c0,0.597-0.195,1.054-0.586,1.371s-0.947,0.477-1.668,0.477h-0.594v2.137h-0.934v-5.711
			h1.645c0.713,0,1.248,0.146,1.604,0.438S41.285,14.173,41.285,14.74z M38.438,15.803h0.496c0.479,0,0.831-0.083,1.055-0.25
			s0.336-0.427,0.336-0.781c0-0.328-0.1-0.573-0.301-0.734s-0.513-0.242-0.938-0.242h-0.648V15.803z"/>
		<path fill="#FFFFFF" d="M44.439,14.326c0.185,0,0.337,0.013,0.457,0.039l-0.09,0.855c-0.13-0.031-0.266-0.047-0.406-0.047
			c-0.367,0-0.665,0.12-0.893,0.359s-0.342,0.551-0.342,0.934v2.258h-0.918v-4.32h0.719l0.121,0.762h0.047
			c0.143-0.258,0.33-0.462,0.561-0.613S44.174,14.326,44.439,14.326z"/>
		<path fill="#FFFFFF" d="M49.449,16.557c0,0.706-0.181,1.257-0.543,1.652s-0.866,0.594-1.512,0.594c-0.404,0-0.76-0.091-1.07-0.273
			s-0.548-0.444-0.715-0.785s-0.25-0.737-0.25-1.188c0-0.7,0.18-1.247,0.539-1.641s0.866-0.59,1.52-0.59
			c0.625,0,1.12,0.201,1.484,0.604S49.449,15.874,49.449,16.557z M46.305,16.557c0,0.997,0.369,1.496,1.105,1.496
			c0.729,0,1.094-0.499,1.094-1.496c0-0.987-0.367-1.48-1.102-1.48c-0.385,0-0.665,0.128-0.838,0.383S46.305,16.08,46.305,16.557z"
			/>
		<path fill="#FFFFFF" d="M51.881,18.803c-0.539,0-0.959-0.195-1.262-0.586s-0.453-0.938-0.453-1.645
			c0-0.708,0.153-1.26,0.459-1.654s0.73-0.592,1.271-0.592c0.568,0,1,0.21,1.297,0.629h0.047c-0.044-0.31-0.066-0.555-0.066-0.734
			v-1.574h0.922v6.078h-0.719l-0.16-0.566h-0.043C52.879,18.588,52.449,18.803,51.881,18.803z M52.127,18.061
			c0.377,0,0.652-0.106,0.824-0.318s0.26-0.557,0.266-1.033V16.58c0-0.544-0.088-0.931-0.266-1.16s-0.455-0.344-0.832-0.344
			c-0.323,0-0.572,0.131-0.746,0.393s-0.262,0.635-0.262,1.119c0,0.479,0.084,0.845,0.254,1.096S51.789,18.061,52.127,18.061z"/>
		<path fill="#FFFFFF" d="M58.375,18.725l-0.129-0.566H58.2c-0.127,0.2-0.309,0.358-0.545,0.473s-0.504,0.172-0.807,0.172
			c-0.523,0-0.914-0.13-1.172-0.391s-0.387-0.655-0.387-1.184v-2.824h0.926v2.664c0,0.331,0.068,0.579,0.203,0.744
			s0.348,0.248,0.637,0.248c0.385,0,0.668-0.115,0.85-0.346s0.271-0.616,0.271-1.158v-2.152h0.922v4.32H58.375z"/>
		<path fill="#FFFFFF" d="M62.069,18.803c-0.654,0-1.15-0.19-1.49-0.572s-0.51-0.929-0.51-1.643c0-0.727,0.178-1.285,0.533-1.676
			s0.869-0.586,1.541-0.586c0.456,0,0.866,0.085,1.23,0.254l-0.277,0.738c-0.388-0.151-0.708-0.227-0.961-0.227
			c-0.748,0-1.121,0.496-1.121,1.488c0,0.484,0.093,0.849,0.279,1.092s0.459,0.365,0.818,0.365c0.409,0,0.795-0.102,1.16-0.305
			v0.801c-0.164,0.097-0.339,0.165-0.525,0.207S62.334,18.803,62.069,18.803z"/>
		<path fill="#FFFFFF" d="M65.817,18.061c0.224,0,0.448-0.035,0.672-0.105v0.691c-0.102,0.044-0.232,0.081-0.393,0.111
			s-0.326,0.045-0.498,0.045c-0.87,0-1.305-0.458-1.305-1.375V15.1h-0.59v-0.406l0.633-0.336l0.312-0.914h0.566v0.961h1.23V15.1
			h-1.23v2.312c0,0.222,0.055,0.385,0.166,0.49S65.637,18.061,65.817,18.061z"/>
		<path fill="#FFFFFF" d="M37.504,22.614h1.695c0.787,0,1.355,0.114,1.705,0.344s0.525,0.591,0.525,1.086
			c0,0.333-0.086,0.61-0.258,0.832s-0.419,0.36-0.742,0.418v0.039c0.401,0.075,0.696,0.225,0.885,0.447s0.283,0.524,0.283,0.904
			c0,0.513-0.179,0.915-0.537,1.205s-0.856,0.436-1.494,0.436h-2.062V22.614z M38.438,24.974h0.898c0.391,0,0.676-0.062,0.855-0.186
			s0.27-0.334,0.27-0.631c0-0.269-0.097-0.462-0.291-0.582s-0.502-0.18-0.924-0.18h-0.809V24.974z M38.438,25.731v1.809h0.992
			c0.391,0,0.686-0.075,0.885-0.225s0.299-0.386,0.299-0.709c0-0.297-0.102-0.517-0.305-0.66s-0.512-0.215-0.926-0.215H38.438z"/>
		<path fill="#FFFFFF" d="M44.799,23.927c0.185,0,0.337,0.013,0.457,0.039l-0.09,0.855c-0.13-0.031-0.266-0.047-0.406-0.047
			c-0.367,0-0.665,0.12-0.893,0.359s-0.342,0.551-0.342,0.934v2.258h-0.918v-4.32h0.719l0.121,0.762h0.047
			c0.143-0.258,0.33-0.462,0.561-0.613S44.533,23.927,44.799,23.927z"/>
		<path fill="#FFFFFF" d="M48.68,28.325l-0.184-0.602h-0.031c-0.208,0.263-0.418,0.442-0.629,0.537s-0.482,0.143-0.812,0.143
			c-0.424,0-0.756-0.114-0.994-0.344s-0.357-0.554-0.357-0.973c0-0.445,0.166-0.781,0.496-1.008s0.834-0.351,1.512-0.371
			l0.746-0.023v-0.23c0-0.276-0.064-0.482-0.193-0.619s-0.329-0.205-0.6-0.205c-0.221,0-0.434,0.032-0.637,0.098
			s-0.398,0.142-0.586,0.23l-0.297-0.656c0.234-0.122,0.491-0.216,0.77-0.279s0.542-0.096,0.789-0.096
			c0.549,0,0.964,0.12,1.244,0.359s0.42,0.616,0.42,1.129v2.91H48.68z M47.312,27.7c0.333,0,0.601-0.093,0.803-0.279
			s0.303-0.447,0.303-0.783v-0.375l-0.555,0.023c-0.432,0.016-0.747,0.088-0.943,0.217s-0.295,0.326-0.295,0.592
			c0,0.192,0.057,0.342,0.172,0.447S47.083,27.7,47.312,27.7z"/>
		<path fill="#FFFFFF" d="M54.338,28.325h-0.922v-2.656c0-0.333-0.067-0.582-0.201-0.746s-0.347-0.246-0.639-0.246
			c-0.388,0-0.672,0.114-0.852,0.344s-0.27,0.613-0.27,1.152v2.152h-0.918v-4.32h0.719l0.129,0.566h0.047
			c0.13-0.206,0.315-0.364,0.555-0.477s0.505-0.168,0.797-0.168c1.037,0,1.555,0.527,1.555,1.582V28.325z"/>
		<path fill="#FFFFFF" d="M56.993,28.403c-0.539,0-0.959-0.195-1.262-0.586s-0.453-0.938-0.453-1.645
			c0-0.708,0.153-1.26,0.459-1.654s0.73-0.592,1.271-0.592c0.568,0,1,0.21,1.297,0.629h0.047c-0.044-0.31-0.066-0.555-0.066-0.734
			v-1.574h0.922v6.078h-0.719l-0.16-0.566h-0.043C57.991,28.188,57.561,28.403,56.993,28.403z M57.239,27.661
			c0.377,0,0.652-0.106,0.824-0.318s0.26-0.557,0.266-1.033v-0.129c0-0.544-0.088-0.931-0.266-1.16s-0.455-0.344-0.832-0.344
			c-0.323,0-0.572,0.131-0.746,0.393s-0.262,0.635-0.262,1.119c0,0.479,0.084,0.845,0.254,1.096S56.9,27.661,57.239,27.661z"/>
	</g>
	<path fill="#43A8BF" d="M30,25.034C30,27.766,27.765,30,25.034,30H4.965C2.235,30,0,27.766,0,25.034V4.965C0,2.234,2.235,0,4.965,0
		h20.069C27.765,0,30,2.234,30,4.965V25.034z"/>
	<g>
		<path fill="#FFFFFF" d="M14.459,19.346c0,1.676-0.603,2.996-1.809,3.961s-2.884,1.447-5.034,1.447
			c-1.98,0-3.732-0.372-5.256-1.117V19.98c1.252,0.559,2.312,0.952,3.18,1.181s1.661,0.343,2.38,0.343
			c0.863,0,1.525-0.165,1.987-0.495s0.692-0.821,0.692-1.473c0-0.364-0.102-0.688-0.305-0.972c-0.203-0.283-0.501-0.556-0.895-0.818
			s-1.195-0.682-2.406-1.257c-1.134-0.533-1.985-1.045-2.552-1.536s-1.02-1.062-1.358-1.714s-0.508-1.413-0.508-2.285
			c0-1.642,0.557-2.933,1.669-3.872S6.897,5.673,8.86,5.673c0.965,0,1.885,0.114,2.761,0.343s1.792,0.55,2.749,0.965l-1.27,3.06
			c-0.99-0.406-1.809-0.689-2.457-0.851S9.36,8.948,8.733,8.948c-0.745,0-1.316,0.174-1.714,0.521s-0.597,0.8-0.597,1.358
			c0,0.347,0.081,0.649,0.241,0.907c0.161,0.259,0.417,0.508,0.768,0.75c0.351,0.24,1.183,0.675,2.495,1.301
			c1.735,0.829,2.924,1.661,3.567,2.494C14.137,17.113,14.459,18.136,14.459,19.346z"/>
		<path fill="#FFFFFF" d="M27.147,14.676c0,1.536-0.48,2.712-1.44,3.525s-2.326,1.221-4.097,1.221h-1.299V24.5h-3.027V10.223h4.561
			c1.732,0,3.048,0.373,3.95,1.118S27.147,13.198,27.147,14.676z M20.312,16.941h0.996c0.931,0,1.627-0.184,2.09-0.552
			s0.693-0.903,0.693-1.606c0-0.71-0.194-1.233-0.581-1.572s-0.995-0.508-1.821-0.508h-1.377V16.941z"/>
	</g>
</g>
</svg>
